<svg xmlns="http://www.w3.org/2000/svg" width="30" height="30" viewBox="0 0 30 30"><defs><style>.a{fill:none;}.b{fill:#f5f5f5;}</style></defs><path class="a" d="M0,0H30V30H0Z"/><path class="b" d="M8.8,22.8a2.6,2.6,0,1,0,2.6,2.6A2.6,2.6,0,0,0,8.8,22.8ZM1,3.3A1.3,1.3,0,0,0,2.3,4.6H3.6l4.68,9.867L6.525,17.639A2.6,2.6,0,0,0,8.8,21.5H23.1a1.3,1.3,0,0,0,0-2.6H8.8l1.43-2.6h9.684a2.587,2.587,0,0,0,2.275-1.339l4.654-8.437A1.3,1.3,0,0,0,25.711,4.6H6.473L5.6,2.741A1.29,1.29,0,0,0,4.432,2H2.3A1.3,1.3,0,0,0,1,3.3ZM21.8,22.8a2.6,2.6,0,1,0,2.6,2.6A2.6,2.6,0,0,0,21.8,22.8Z"/></svg>